<svg xmlns="http://www.w3.org/2000/svg" width="512" height="512" viewBox="0 0 512 512">
  <rect width="512" height="512" rx="112" ry="112" fill="#0b0b0c"/>
  <g transform="translate(256 256) scale(12.4) translate(-12 -12)"
     fill="none" stroke="#ffffff" stroke-width="2"
     stroke-linecap="round" stroke-linejoin="round">
    <path d="M2 9a3 3 0 0 1 0 6v2a2 2 0 0 0 2 2h16a2 2 0 0 0 2-2v-2a3 3 0 0 1 0-6V7a2 2 0 0 0-2-2H4a2 2 0 0 0-2 2Z"/>
    <path d="M13 7v1.5"/>
    <path d="M13 15.5v1.5"/>
    <path d="M13 11v2"/>
  </g>
</svg>
